<svg width="250" height="180" viewBox="0 0 250 180" fill="none" xmlns="http://www.w3.org/2000/svg" style="background-color:transparent;">
<path d="M50 100 L150 100 L200 60 L100 60 L50 100 Z" stroke="white" stroke-width="1" fill-opacity="0"/>
<path d="M50 100 L50 140 L100 140 L100 60" stroke="white" stroke-width="1"/>
<path d="M100 140 L200 140 L200 60" stroke="white" stroke-width="1"/>
<path d="M150 100 L150 140 L100 140" stroke="white" stroke-width="1" fill-opacity="0"/>
<g stroke="white" stroke-width="1">
<path d="M125 55 L125 35"/>
<path d="M125 35 L120 40"/>
<path d="M125 35 L130 40"/>
<path d="M122 25 L128 15"/>
<path d="M120 15 L128 15"/>
</g>
<text x="132" y="28" font-family="sans-serif" font-size="14" fill="white" font-weight="bold">Fb</text>
<g stroke="white" stroke-width="1">
<path d="M205 100 L230 100"/>
<path d="M230 100 L225 95"/>
<path d="M230 100 L225 105"/>
</g>
<text x="235" y="104" font-family="sans-serif" font-size="14" fill="white" font-weight="bold">E</text>
<g stroke="white" stroke-width="1">
<path d="M175 120 L175 130"/>
<path d="M175 130 L170 125"/>
<path d="M175 130 L180 125"/>
</g>
<text x="183" y="134" font-family="sans-serif" font-size="14" fill="white" font-weight="bold">Fv</text>
<g stroke="white" stroke-width="1">
<path d="M80 80 L50 80"/>
<path d="M50 80 L55 75"/>
<path d="M50 80 L55 85"/>
</g>
<text x="35" y="84" font-family="sans-serif" font-size="14" fill="white" font-weight="bold">ρ</text>
</svg>